REM DIRINDEX 1\2,1\3,1\4,1\5
REM DIRNAME "folder01","folder02","folder03","folder04","folder05"
TITLE ""
FILE "1Q_t_0578-0587.mp3" MP3
  TRACK 01 AUDIO
    TITLE "3:cjc172_2668"
    INDEX 01 00:00:00
  TRACK 02 AUDIO
    TITLE "0:"
    INDEX 01 00:01:23
  TRACK 03 AUDIO
    TITLE "4:cjc172_2669"
    INDEX 01 00:01:33
  TRACK 04 AUDIO
    TITLE "0:"
    INDEX 01 00:02:48
  TRACK 05 AUDIO
    TITLE "5:cjc172_2670"
    INDEX 01 00:02:54
  TRACK 06 AUDIO
    TITLE "0:"
    INDEX 01 00:07:22
  TRACK 07 AUDIO
    TITLE "3:cjc172_2671"
    INDEX 01 00:07:69
  TRACK 08 AUDIO
    TITLE "0:"
    INDEX 01 00:08:73
  TRACK 09 AUDIO
    TITLE "4:cjc172_2672"
    INDEX 01 00:09:07
  TRACK 10 AUDIO
    TITLE "0:"
    INDEX 01 00:10:46
  TRACK 11 AUDIO
    TITLE "5:cjc172_2673"
    INDEX 01 00:10:52
  TRACK 12 AUDIO
    TITLE "0:"
    INDEX 01 00:14:73
  TRACK 13 AUDIO
    TITLE "3:cjc172_2674"
    INDEX 01 00:15:45
  TRACK 14 AUDIO
    TITLE "0:"
    INDEX 01 00:16:52
  TRACK 15 AUDIO
    TITLE "4:cjc172_2675"
    INDEX 01 00:16:64
  TRACK 16 AUDIO
    TITLE "0:"
    INDEX 01 00:20:37
  TRACK 17 AUDIO
    TITLE "5:cjc172_2676"
    INDEX 01 00:20:42
  TRACK 18 AUDIO
    TITLE "0:"
    INDEX 01 00:25:30
  TRACK 19 AUDIO
    TITLE "3:cjc172_2677"
    INDEX 01 00:25:73
  TRACK 20 AUDIO
    TITLE "0:"
    INDEX 01 00:27:07
  TRACK 21 AUDIO
    TITLE "4:cjc172_2678"
    INDEX 01 00:27:15
  TRACK 22 AUDIO
    TITLE "0:"
    INDEX 01 00:29:59
  TRACK 23 AUDIO
    TITLE "5:cjc172_2679"
    INDEX 01 00:29:65
  TRACK 24 AUDIO
    TITLE "0:"
    INDEX 01 00:34:48
  TRACK 25 AUDIO
    TITLE "3:cjc172_2680"
    INDEX 01 00:35:20
  TRACK 26 AUDIO
    TITLE "0:"
    INDEX 01 00:36:26
  TRACK 27 AUDIO
    TITLE "4:cjc172_2681"
    INDEX 01 00:36:36
  TRACK 28 AUDIO
    TITLE "0:"
    INDEX 01 00:38:11
  TRACK 29 AUDIO
    TITLE "5:cjc172_2682"
    INDEX 01 00:38:17
  TRACK 30 AUDIO
    TITLE "0:"
    INDEX 01 00:42:34
  TRACK 31 AUDIO
    TITLE "3:cjc172_2683"
    INDEX 01 00:43:06
  TRACK 32 AUDIO
    TITLE "0:"
    INDEX 01 00:44:15
  TRACK 33 AUDIO
    TITLE "4:cjc172_2684"
    INDEX 01 00:44:25
  TRACK 34 AUDIO
    TITLE "0:"
    INDEX 01 00:48:00
  TRACK 35 AUDIO
    TITLE "5:cjc172_2685"
    INDEX 01 00:48:05
  TRACK 36 AUDIO
    TITLE "0:"
    INDEX 01 00:52:42
  TRACK 37 AUDIO
    TITLE "3:cjc172_2686"
    INDEX 01 00:53:12
  TRACK 38 AUDIO
    TITLE "0:"
    INDEX 01 00:54:10
  TRACK 39 AUDIO
    TITLE "4:cjc172_2687"
    INDEX 01 00:54:24
  TRACK 40 AUDIO
    TITLE "0:"
    INDEX 01 00:55:52
  TRACK 41 AUDIO
    TITLE "5:cjc172_2688"
    INDEX 01 00:55:60
  TRACK 42 AUDIO
    TITLE "0:"
    INDEX 01 01:01:02
  TRACK 43 AUDIO
    TITLE "3:cjc172_2689"
    INDEX 01 01:01:49
  TRACK 44 AUDIO
    TITLE "0:"
    INDEX 01 01:02:47
  TRACK 45 AUDIO
    TITLE "4:cjc172_2690"
    INDEX 01 01:02:56
  TRACK 46 AUDIO
    TITLE "0:"
    INDEX 01 01:04:02
  TRACK 47 AUDIO
    TITLE "5:cjc172_2691"
    INDEX 01 01:04:08
  TRACK 48 AUDIO
    TITLE "0:"
    INDEX 01 01:08:08
  TRACK 49 AUDIO
    TITLE "3:cjc172_2692"
    INDEX 01 01:08:53
  TRACK 50 AUDIO
    TITLE "0:"
    INDEX 01 01:09:72
  TRACK 51 AUDIO
    TITLE "4:cjc172_2693"
    INDEX 01 01:10:09
  TRACK 52 AUDIO
    TITLE "0:"
    INDEX 01 01:12:63
  TRACK 53 AUDIO
    TITLE "5:cjc172_2694"
    INDEX 01 01:12:71
  TRACK 54 AUDIO
    TITLE "0:"
    INDEX 01 01:19:00
  TRACK 55 AUDIO
    TITLE "3:cjc172_2695"
    INDEX 01 01:19:47
  TRACK 56 AUDIO
    TITLE "0:"
    INDEX 01 01:20:66
  TRACK 57 AUDIO
    TITLE "4:cjc172_2696"
    INDEX 01 01:20:74
  TRACK 58 AUDIO
    TITLE "0:"
    INDEX 01 01:22:12
  TRACK 59 AUDIO
    TITLE "5:cjc172_2697"
    INDEX 01 01:22:20
  TRACK 60 AUDIO
    TITLE "0:"
    INDEX 01 01:29:20
